PathFileType	4	(X/Y/Z)	D:\TRACE\spotREDO_2-26-24\spot_justBody_Motion_1_3-platform.trc
DataRate	CameraRate	NumFrames	NumMarkers	Units	OrigDataRate	OrigDataStartFrame	OrigNumFrames
100.00	100.00	      67	5	mm	100.00	876	      7000
Frame#	Time	Left_Front			Right_Front			Left_Aft			Right_Aft			Post			
		X1	Y1	Z1	X2	Y2	Z2	X3	Y3	Z3	X4	Y4	Z4	X5	Y5	Z5	

876	8.750	-646.80310	-18.67430	-579.08264	767.81720	-7.40482	-494.89474	-718.19531	20.34967	639.41711	852.24030	28.03677	642.32617	62.57715	598.46710	-1000.81012	
877	8.760	-647.25989	-19.05205	-579.23438	767.62140	-7.74659	-494.90680	-718.43311	20.45709	639.34399	851.92700	28.34584	642.40857	62.27222	598.11951	-1001.25677	
878	8.770	-647.51654	-19.35877	-579.33844	767.43335	-7.95166	-494.93097	-718.75287	20.70639	639.25232	851.50421	28.66853	642.31537	61.74493	597.47302	-1001.92218	
879	8.780	-647.64014	-19.62218	-579.27734	767.20770	-8.31089	-494.89078	-719.13623	21.34518	639.10950	851.14990	29.07982	642.20471	61.21555	596.91541	-1002.35089	
880	8.790	-647.85577	-19.86021	-579.36316	766.95764	-8.61792	-494.88736	-719.51581	21.59232	638.88312	850.98090	29.42703	642.15540	60.48807	596.46021	-1002.73944	
881	8.800	-648.09723	-20.13377	-579.44843	766.62878	-8.78334	-494.78574	-719.84094	21.86102	638.81696	850.91425	29.65762	642.02185	60.82821	595.83954	-1003.09412	
882	8.810	-648.39185	-20.45300	-579.58997	766.28094	-9.20800	-494.96808	-719.98102	22.39469	638.68262	850.72162	29.85389	641.78455	60.74121	595.24292	-1003.45947	
883	8.820	-648.59839	-20.77321	-579.54944	765.80115	-9.56811	-495.22708	-720.25116	22.68772	638.70343	850.26080	30.18615	641.68066	60.28502	594.71045	-1004.15277	
884	8.830	-649.07977	-21.01239	-579.66724	765.60529	-9.62230	-495.24289	-720.65686	22.56873	638.64886	849.95630	30.52900	641.68030	60.34211	594.36938	-1004.35736	
885	8.840	-649.47223	-21.23827	-579.74463	765.35968	-9.78512	-495.13116	-720.91766	22.73576	638.56281	849.58453	30.64566	641.60175	59.91315	593.89362	-1004.86731	
886	8.850	-649.69952	-21.56273	-579.75708	764.98804	-9.91248	-495.30154	-721.26782	23.12176	638.56982	848.93274	30.51068	641.78687	59.62952	593.35571	-1004.78656	
887	8.860	-650.04272	-21.82204	-579.87085	764.56403	-10.07898	-495.49075	-721.82550	23.48063	638.31189	848.46436	31.11563	641.74371	59.25821	592.97345	-1005.15540	
888	8.870	-650.62817	-22.10349	-580.00507	764.11731	-10.30407	-495.41312	-722.23914	24.13809	638.23364	848.21448	31.45982	641.57666	58.93667	592.52240	-1005.39996	
889	8.880	-650.96027	-22.43972	-580.13531	763.71283	-10.74081	-495.56799	-722.59003	24.26944	638.04431	847.93268	31.54403	641.53986	58.59261	592.10217	-1005.55304	
890	8.890	-651.48560	-22.78958	-580.20520	763.16803	-10.93890	-495.83981	-722.89056	24.35711	637.97131	847.21063	31.90703	641.34650	57.80289	591.65747	-1006.00348	
891	8.900	-651.89813	-23.04934	-580.24817	762.55615	-11.04261	-496.05795	-723.34454	24.57222	637.98047	846.98254	32.07784	641.29370	57.45644	591.14935	-1006.10156	
892	8.910	-652.29907	-23.21329	-580.26282	762.55316	-11.37652	-495.88919	-723.77893	25.02825	638.08411	846.29059	32.38762	641.11420	57.10583	590.66028	-1006.52966	
893	8.920	-652.74469	-23.45241	-580.25104	761.94116	-11.67768	-495.81628	-724.47034	25.47265	637.86157	845.63342	32.82619	641.08221	56.64662	590.23523	-1006.98071	
894	8.930	-653.30511	-23.76032	-580.22614	761.53680	-11.69726	-495.82294	-724.87000	25.53771	637.75665	845.51465	33.03991	641.04395	56.41265	589.61078	-1007.24365	
895	8.940	-653.84625	-23.98958	-580.34393	761.07947	-12.22718	-495.90063	-725.25940	25.68988	637.66925	845.34839	33.09068	640.96124	55.79479	589.24261	-1007.92889	
896	8.950	-654.26941	-24.12996	-580.38885	760.53564	-12.35984	-496.05576	-725.82318	25.95411	637.58124	844.55847	33.68322	640.91156	55.22892	588.75140	-1008.34869	
897	8.960	-654.63220	-24.35298	-580.37891	759.94214	-12.63135	-496.13028	-726.15283	26.16240	637.73474	844.18005	33.98221	640.92017	54.54869	588.38245	-1008.83478	
898	8.970	-655.52026	-24.67961	-580.52539	759.36053	-12.83138	-496.04950	-726.79572	26.35019	637.47119	843.74847	34.09644	640.90723	54.58377	587.94513	-1008.89636	
899	8.980	-655.87714	-24.84584	-580.47888	758.90802	-12.85437	-496.05447	-727.34393	26.76610	637.32300	843.33740	34.01093	640.70850	53.99085	587.67090	-1009.38177	
900	8.990	-656.19037	-24.94908	-580.54169	758.37347	-12.90239	-496.10620	-727.94977	27.08246	637.19434	842.51135	34.55198	640.55243	53.11317	587.16431	-1009.75018	
901	9.000	-656.73883	-25.16874	-580.65070	758.07709	-13.25172	-496.41437	-728.57556	27.10849	637.16144	841.88702	34.69396	640.53876	52.51583	586.85327	-1009.82452	
902	9.010	-657.49402	-25.49860	-580.70227	757.20874	-13.56156	-496.29739	-728.99615	27.17937	637.14716	841.43036	34.69143	640.48889	51.94126	586.40192	-1009.86365	
903	9.020	-658.26819	-25.75521	-580.70221	756.44360	-13.71223	-496.47693	-729.49524	27.45136	637.00995	840.56091	35.13261	640.31122	51.52759	586.25598	-1009.86163	
904	9.030	-658.86438	-25.85610	-580.64197	755.95441	-13.87152	-496.66086	-730.14795	27.70136	636.98157	840.18335	35.32598	640.30237	50.75504	586.00439	-1009.92297	
905	9.040	-659.36267	-26.14197	-580.66974	755.53754	-14.05489	-496.60855	-731.00079	27.77575	636.90570	839.88483	35.29021	640.24786	50.46769	585.58362	-1009.79169	
906	9.050	-659.89612	-26.37942	-580.87708	754.80658	-14.12842	-496.54446	-731.41028	28.14678	636.90240	838.77917	35.76908	640.16656	49.51174	585.27808	-1010.14917	
907	9.060	-660.41730	-26.68315	-580.96576	754.19397	-14.38275	-496.47653	-732.09741	28.36373	636.93134	838.12109	35.82888	640.08978	48.90497	584.91479	-1010.54529	
908	9.070	-660.98535	-26.96677	-580.95184	753.39044	-14.33291	-496.55814	-732.72455	28.42876	636.88409	837.76697	35.90072	640.14142	48.28171	584.28802	-1011.06555	
909	9.080	-661.84967	-27.08916	-581.13885	752.82507	-14.86323	-496.79568	-733.40869	28.50198	636.83936	837.05994	36.28049	640.01788	47.88164	584.02704	-1011.31927	
910	9.090	-662.39532	-27.12701	-581.17163	752.23962	-14.80283	-496.67697	-734.01752	28.80676	636.74823	836.44550	36.48062	640.01202	47.24038	583.81342	-1011.81592	
911	9.100	-663.24475	-27.34956	-581.19031	751.64642	-14.92804	-496.69998	-734.69989	29.29481	636.66284	835.79962	36.75143	640.05566	46.37473	583.62378	-1012.32391	
912	9.110	-663.95593	-27.44548	-581.17609	750.98401	-15.12352	-496.76056	-735.52808	29.43379	636.58014	834.87122	36.85918	639.94098	45.46906	583.24542	-1012.67474	
913	9.120	-664.41870	-27.58471	-581.43250	750.08539	-15.26374	-496.72849	-736.29987	29.45772	636.43091	834.15173	36.89380	639.89111	44.86362	582.94330	-1012.88873	
914	9.130	-665.43152	-27.66241	-581.22357	749.37415	-15.56387	-496.76730	-736.89771	29.64432	636.55426	833.68225	37.03296	639.73615	44.48599	582.64087	-1012.58966	
915	9.140	-665.93353	-28.04194	-581.20984	748.87476	-15.64696	-496.78445	-737.28687	29.73921	636.55096	832.78540	37.45208	639.78296	43.71261	582.29871	-1012.82983	
916	9.150	-666.60443	-28.07935	-581.15302	748.08911	-15.76903	-496.92068	-738.21246	29.82765	636.34747	832.19336	37.37415	639.69476	43.04486	582.12067	-1012.86121	
917	9.160	-667.47693	-28.01089	-581.15002	747.00323	-15.72092	-497.05084	-739.11798	29.95330	636.28400	831.35809	37.56684	639.70386	42.03342	581.91754	-1012.87732	
918	9.170	-668.13104	-28.24340	-581.21875	746.49146	-15.92917	-496.93076	-739.83051	30.06630	636.25116	830.87634	37.71477	639.67035	41.25564	581.78845	-1012.98682	
919	9.180	-669.20667	-28.50730	-581.37964	745.85895	-16.11764	-497.04321	-740.59320	30.18829	636.23322	829.79950	37.80434	639.78271	40.46198	581.71539	-1013.01318	
920	9.190	-669.71771	-28.58488	-581.36584	744.83881	-16.38596	-497.05127	-741.41010	30.22507	636.22913	828.96857	37.72873	639.79303	39.43041	581.41870	-1013.16937	
921	9.200	-670.74744	-28.59533	-581.44946	744.16840	-16.33520	-496.99139	-742.10968	30.29397	636.33783	828.20337	37.80101	639.70691	38.80467	581.27222	-1013.12268	
922	9.210	-671.36658	-28.65594	-581.46002	743.32825	-16.34052	-497.01935	-742.79773	30.22279	636.44739	827.50195	38.04216	639.60480	38.16395	581.15320	-1013.35858	
923	9.220	-672.40771	-28.67352	-581.43488	742.65546	-16.43727	-496.85825	-743.82855	30.50098	636.34052	826.58783	38.10442	639.55835	37.45852	580.97949	-1013.73804	
924	9.230	-673.10132	-28.83160	-581.42029	741.93073	-16.50547	-496.90460	-744.59186	30.66909	636.23584	825.87708	38.10378	639.54755	36.84092	580.88641	-1014.07025	
925	9.240	-673.75031	-28.96120	-581.52155	740.77576	-16.62873	-497.12103	-745.36237	30.62775	636.08337	825.25012	38.17245	639.44891	35.63774	580.55652	-1014.43896	
926	9.250	-674.40826	-28.95049	-581.25397	739.93085	-16.85376	-497.17334	-746.30066	30.68170	635.99860	824.22894	38.32248	639.36981	34.98011	580.58624	-1014.41656	
927	9.260	-675.43103	-29.11557	-581.41718	739.39880	-16.91921	-497.09930	-747.02637	31.03206	636.17737	823.40643	38.29925	639.45404	34.07098	580.46179	-1014.51062	
928	9.270	-676.50598	-29.28201	-581.44495	738.50836	-16.75314	-497.11929	-747.71240	30.88453	636.02069	822.39154	38.35768	639.23529	33.07899	580.34113	-1014.37604	
929	9.280	-677.12842	-29.34161	-581.45905	737.39154	-16.92830	-496.98822	-748.72699	30.80910	635.90411	821.61029	38.45364	639.16956	32.73309	580.16504	-1014.21912	
930	9.290	-678.06360	-29.42730	-581.57819	736.67590	-16.87864	-497.10248	-749.68494	31.02451	635.97968	820.91162	38.46936	639.27917	31.73679	580.10449	-1014.28052	
931	9.300	-678.85217	-29.59505	-581.60486	736.01318	-17.03486	-497.08990	-750.52594	31.16666	635.95007	819.89441	38.45519	639.21851	30.62702	580.00330	-1014.16565	
932	9.310	-679.82452	-29.52534	-581.54132	734.76489	-17.15410	-497.12872	-751.33179	31.17397	635.90222	818.96106	38.66761	639.26056	29.92058	580.05200	-1014.04352	
933	9.320	-680.61407	-29.54505	-581.57703	733.99683	-16.97186	-497.13220	-752.34192	31.15773	636.13000	818.33319	38.65763	639.44177	28.97236	580.03857	-1014.18396	
934	9.330	-681.46759	-29.53573	-581.47235	733.35376	-17.25536	-497.21475	-753.21509	31.06939	636.00037	817.40283	38.63374	639.46191	27.95168	580.04102	-1014.42645	
935	9.340	-682.49774	-29.54513	-581.47699	732.31250	-17.06293	-497.07715	-753.86456	31.13100	636.00140	816.47644	38.62822	639.56012	27.07790	579.93738	-1014.29034	
936	9.350	-683.55896	-29.40611	-581.52448	731.23499	-17.11420	-497.18375	-755.05377	31.06372	635.93036	815.57385	38.71907	639.36237	26.06587	579.94312	-1014.20966	
937	9.360	-684.38330	-29.27062	-581.62488	730.32092	-17.04256	-497.22488	-755.84924	31.05242	635.85541	814.43365	38.63988	639.50281	25.02605	579.83838	-1014.41223	
938	9.370	-685.18292	-29.31293	-581.56097	729.81073	-17.12770	-496.85062	-756.82373	30.91463	635.84631	813.62378	38.54515	639.43933	24.26135	579.86633	-1014.46320	
939	9.380	-686.17804	-29.37824	-581.57843	728.43701	-17.22166	-497.29749	-757.83997	31.01165	635.96881	812.77277	38.53369	639.30304	23.49335	579.92444	-1014.70618	
940	9.390	-687.14111	-29.43433	-581.63239	727.48254	-17.09980	-497.14639	-758.85364	31.19369	635.91980	811.65076	38.73590	639.40729	22.57504	579.95605	-1014.79639	
941	9.400	-688.00537	-29.29392	-581.62378	726.97516	-17.15170	-497.07089	-759.49634	30.97916	635.95667	810.95203	38.62329	639.37213	21.52233	579.86536	-1014.80603	
942	9.410	-688.80383	-29.32662	-581.56824	725.78271	-16.87539	-497.23508	-760.52234	30.92699	635.97833	809.51984	38.48341	639.47064	20.66312	579.88672	-1014.76703	
